<?xml version="1.0" encoding="utf-8"?>
<!-- Generator: Adobe Illustrator 16.0.4, SVG Export Plug-In . SVG Version: 6.00 Build 0)  -->
<!DOCTYPE svg PUBLIC "-//W3C//DTD SVG 1.1//EN" "http://www.w3.org/Graphics/SVG/1.1/DTD/svg11.dtd">
<svg version="1.1" id="Layer_1" xmlns="http://www.w3.org/2000/svg" xmlns:xlink="http://www.w3.org/1999/xlink" x="0px" y="0px"
	 width="100px" height="100px" viewBox="0 0 100 100" enable-background="new 0 0 100 100" xml:space="preserve">
<path fill="#FFFFFF" d="M49.809,68.982c-0.077-0.008-0.143-0.023-0.218-0.044c-0.193-0.06-0.372-0.159-0.535-0.3
	c-0.052-0.043-0.122-0.043-0.169-0.094c-0.029-0.031-0.038-0.072-0.064-0.105L37.964,56.938c-0.605-0.642-0.605-1.681,0-2.322
	c0.605-0.641,1.586-0.641,2.191,0l8.285,8.776V32.653C48.439,31.74,49.138,31,50,31c0.861,0,1.561,0.74,1.561,1.653v30.739
	l8.284-8.776c0.605-0.641,1.586-0.641,2.191,0c0.605,0.642,0.605,1.681,0,2.322L51.182,68.435c-0.027,0.035-0.037,0.078-0.068,0.11
	C50.757,68.923,50.273,69.051,49.809,68.982z"/>
</svg>
