<?xml version="1.0" encoding="utf-8"?>
<!-- Generator: Adobe Illustrator 16.0.4, SVG Export Plug-In . SVG Version: 6.00 Build 0)  -->
<!DOCTYPE svg PUBLIC "-//W3C//DTD SVG 1.1//EN" "http://www.w3.org/Graphics/SVG/1.1/DTD/svg11.dtd">
<svg version="1.1" id="Layer_1" xmlns="http://www.w3.org/2000/svg" xmlns:xlink="http://www.w3.org/1999/xlink" x="0px" y="0px"
	 width="100px" height="100px" viewBox="0 0 100 100" enable-background="new 0 0 100 100" xml:space="preserve">
<path fill="#FFFFFF" d="M57.499,50.077c-0.003,0.03-0.009,0.057-0.018,0.087c-0.023,0.078-0.062,0.148-0.118,0.215
	c-0.017,0.021-0.017,0.048-0.037,0.067c-0.012,0.012-0.028,0.015-0.041,0.025L52.74,54.82c-0.253,0.243-0.664,0.243-0.917,0
	c-0.254-0.242-0.254-0.635,0-0.877l3.467-3.318H43.147c-0.36,0-0.653-0.279-0.653-0.625c0-0.345,0.293-0.625,0.653-0.625H55.29
	l-3.467-3.318c-0.254-0.242-0.254-0.635,0-0.877c0.253-0.242,0.664-0.242,0.917,0l4.543,4.348c0.014,0.011,0.03,0.015,0.043,0.028
	C57.476,49.697,57.526,49.891,57.499,50.077z"/>
</svg>
