<?xml version="1.0" encoding="utf-8"?>
<!-- Generator: Adobe Illustrator 16.0.4, SVG Export Plug-In . SVG Version: 6.00 Build 0)  -->
<!DOCTYPE svg PUBLIC "-//W3C//DTD SVG 1.1//EN" "http://www.w3.org/Graphics/SVG/1.1/DTD/svg11.dtd">
<svg version="1.1" id="Layer_1" xmlns="http://www.w3.org/2000/svg" xmlns:xlink="http://www.w3.org/1999/xlink" x="0px" y="0px"
	 width="100px" height="100px" viewBox="0 0 100 100" enable-background="new 0 0 100 100" xml:space="preserve">
<path fill="#FFFFFF" d="M50.461,68.916c0.033-0.01,0.064-0.021,0.098-0.034c0.065-0.021,0.13-0.043,0.191-0.073
	c0.039-0.02,0.076-0.04,0.112-0.064c0.039-0.021,0.081-0.038,0.117-0.064c0.003,0,0.003,0,0.004,0l12.243-8.373l0.002-0.001
	l0.008-0.005c0.024-0.016,0.04-0.034,0.064-0.054c0.067-0.051,0.135-0.104,0.194-0.165c0.039-0.039,0.069-0.083,0.104-0.126
	c0.035-0.045,0.076-0.087,0.11-0.136c0.03-0.047,0.054-0.098,0.079-0.147c0.028-0.051,0.056-0.1,0.077-0.153
	c0.024-0.053,0.034-0.109,0.052-0.163c0.018-0.056,0.034-0.105,0.045-0.162c0.017-0.081,0.023-0.166,0.026-0.249
	c0.003-0.028,0.009-0.057,0.009-0.085V58.85v-0.002V52.66l6.057-4.026c0.115-0.076,0.213-0.164,0.302-0.261
	c0.023-0.022,0.037-0.049,0.059-0.073c0.083-0.098,0.152-0.2,0.21-0.31c0.011-0.021,0.026-0.033,0.035-0.054
	c0.01-0.015,0.01-0.031,0.019-0.046c0.024-0.056,0.043-0.112,0.062-0.17c0.021-0.054,0.037-0.107,0.049-0.162
	c0.013-0.051,0.016-0.102,0.025-0.156c0.007-0.062,0.017-0.121,0.02-0.181c0.002-0.053-0.005-0.104-0.008-0.157
	c-0.005-0.06-0.006-0.118-0.019-0.176c-0.009-0.053-0.024-0.106-0.038-0.16c-0.016-0.056-0.026-0.111-0.045-0.165
	c-0.021-0.05-0.044-0.096-0.067-0.144c-0.029-0.057-0.055-0.111-0.089-0.164c-0.009-0.016-0.014-0.032-0.024-0.044
	c-0.021-0.03-0.046-0.055-0.07-0.083c-0.035-0.048-0.074-0.098-0.118-0.144c-0.04-0.043-0.082-0.079-0.125-0.118
	c-0.039-0.036-0.086-0.072-0.129-0.105c-0.054-0.038-0.107-0.07-0.165-0.1c-0.029-0.018-0.056-0.038-0.088-0.054l-3.729-1.801
	l4.497-2.377c0.011-0.005,0.018-0.013,0.026-0.019c0.032-0.019,0.062-0.041,0.094-0.062c0.091-0.057,0.17-0.12,0.249-0.19
	c0.03-0.03,0.061-0.06,0.09-0.091c0.083-0.089,0.156-0.184,0.218-0.287c0.011-0.016,0.023-0.027,0.032-0.043
	c0.003-0.005,0.003-0.009,0.008-0.016c0.032-0.061,0.057-0.128,0.086-0.195c0.017-0.042,0.035-0.082,0.051-0.124
	c0.019-0.057,0.023-0.114,0.037-0.173c0.009-0.052,0.025-0.104,0.032-0.159c0.009-0.078,0.006-0.159,0.003-0.237
	c-0.002-0.032,0.005-0.064,0-0.096c-0.005-0.07-0.023-0.142-0.035-0.212c-0.011-0.041-0.014-0.082-0.024-0.121
	c-0.015-0.049-0.034-0.094-0.054-0.142c-0.025-0.062-0.042-0.124-0.074-0.182c-0.003-0.006-0.003-0.011-0.008-0.018
	c-0.021-0.036-0.046-0.067-0.068-0.102c-0.036-0.058-0.071-0.117-0.114-0.172c-0.032-0.042-0.073-0.077-0.111-0.118
	c-0.04-0.042-0.082-0.088-0.126-0.127c-0.053-0.044-0.106-0.077-0.164-0.113c-0.032-0.024-0.067-0.052-0.104-0.074l-12.68-7.121
	c-0.016-0.008-0.024-0.009-0.037-0.017c-0.049-0.025-0.102-0.046-0.153-0.068c-0.059-0.024-0.117-0.05-0.175-0.067
	c-0.034-0.009-0.067-0.014-0.099-0.021c-0.08-0.019-0.156-0.035-0.234-0.043c-0.026-0.001-0.048,0-0.074-0.001
	c-0.09-0.003-0.173-0.005-0.262,0.003c-0.028,0.002-0.054,0.012-0.083,0.016c-0.083,0.012-0.167,0.028-0.247,0.052
	c-0.032,0.009-0.06,0.024-0.094,0.035c-0.077,0.027-0.152,0.058-0.224,0.097c-0.01,0.005-0.019,0.006-0.025,0.011L50,34.743
	l-6.272-3.51c-0.011-0.006-0.024-0.007-0.033-0.015c-0.061-0.032-0.127-0.057-0.193-0.083c-0.041-0.016-0.08-0.035-0.122-0.047
	c-0.073-0.022-0.146-0.033-0.22-0.048c-0.036-0.004-0.071-0.015-0.107-0.021c-0.085-0.009-0.168-0.006-0.253-0.003
	c-0.027,0-0.052-0.001-0.079,0c-0.082,0.008-0.162,0.025-0.242,0.044c-0.031,0.006-0.063,0.011-0.093,0.02
	c-0.063,0.019-0.123,0.046-0.184,0.073c-0.049,0.02-0.097,0.038-0.145,0.063c-0.011,0.007-0.025,0.01-0.036,0.018l-12.68,7.128
	c-0.033,0.02-0.063,0.045-0.095,0.066c-0.06,0.038-0.12,0.075-0.175,0.123c-0.045,0.038-0.083,0.082-0.124,0.124
	c-0.038,0.04-0.079,0.076-0.113,0.12c-0.047,0.059-0.083,0.121-0.122,0.184c-0.019,0.032-0.043,0.058-0.062,0.091
	c-0.001,0.005-0.003,0.01-0.007,0.014c-0.036,0.069-0.061,0.142-0.087,0.215c-0.013,0.036-0.032,0.073-0.041,0.109
	c-0.016,0.057-0.024,0.116-0.034,0.174c-0.009,0.054-0.024,0.105-0.027,0.161c-0.003,0.045,0,0.091,0,0.135
	c0,0.066-0.003,0.132,0.003,0.198c0.005,0.045,0.02,0.09,0.028,0.135c0.012,0.066,0.021,0.132,0.042,0.196
	c0.011,0.035,0.03,0.069,0.042,0.102c0.028,0.073,0.057,0.146,0.094,0.219c0.002,0.004,0.003,0.009,0.006,0.015
	c0.006,0.014,0.019,0.023,0.027,0.035c0.063,0.105,0.138,0.204,0.223,0.295c0.03,0.03,0.059,0.061,0.09,0.089
	c0.074,0.069,0.158,0.132,0.246,0.19c0.032,0.021,0.062,0.044,0.093,0.063c0.009,0.005,0.018,0.012,0.027,0.02l4.497,2.376
	l-3.73,1.801c-0.036,0.018-0.066,0.043-0.099,0.063c-0.05,0.028-0.101,0.057-0.147,0.091c-0.051,0.035-0.096,0.074-0.141,0.114
	c-0.039,0.035-0.08,0.07-0.116,0.107c-0.046,0.048-0.085,0.099-0.124,0.15c-0.021,0.027-0.047,0.051-0.066,0.079
	c-0.009,0.014-0.014,0.03-0.023,0.042c-0.033,0.054-0.062,0.11-0.087,0.167c-0.024,0.049-0.049,0.098-0.068,0.146
	c-0.019,0.051-0.031,0.104-0.046,0.158c-0.015,0.057-0.033,0.112-0.042,0.169c-0.008,0.053-0.011,0.108-0.015,0.161
	c-0.003,0.059-0.011,0.115-0.008,0.172c0.001,0.055,0.012,0.11,0.018,0.164c0.006,0.056,0.012,0.114,0.025,0.173
	c0.011,0.049,0.028,0.097,0.044,0.146c0.018,0.063,0.041,0.123,0.067,0.183c0.004,0.016,0.009,0.03,0.015,0.044
	c0.01,0.019,0.025,0.031,0.033,0.05c0.058,0.111,0.129,0.216,0.212,0.312c0.02,0.025,0.036,0.051,0.058,0.073
	c0.089,0.096,0.188,0.182,0.302,0.259l6.059,4.026v6.188v0.001v0.011c0,0.03,0.006,0.057,0.008,0.085
	c0.004,0.083,0.009,0.168,0.025,0.25c0.009,0.057,0.03,0.106,0.046,0.161c0.016,0.056,0.029,0.111,0.051,0.164
	c0.022,0.054,0.052,0.102,0.078,0.154c0.025,0.048,0.049,0.099,0.079,0.146c0.033,0.049,0.072,0.093,0.11,0.139
	c0.033,0.041,0.064,0.086,0.102,0.124c0.062,0.062,0.129,0.113,0.196,0.165c0.022,0.018,0.039,0.037,0.062,0.054l0.008,0.004
	c0,0,0,0.002,0.001,0.002l12.241,8.371c0.002,0.003,0.002,0.003,0.003,0.003c0.034,0.024,0.077,0.042,0.117,0.064
	c0.038,0.023,0.075,0.043,0.114,0.064c0.061,0.029,0.125,0.052,0.19,0.073c0.033,0.013,0.064,0.025,0.098,0.032
	c0.025,0.007,0.049,0.018,0.076,0.023c0.122,0.027,0.25,0.045,0.381,0.045c0,0,0.001,0.001,0.003,0.001l0,0l0,0c0,0,0,0,0.003,0l0,0
	c0,0,0.002-0.001,0.004-0.001c0.132,0,0.257-0.019,0.38-0.045C50.411,68.932,50.436,68.922,50.461,68.916z M58.679,43.818
	l-8.681,4.679l-8.679-4.679l8.679-5.047L58.679,43.818z"/>
</svg>
