<?xml version="1.0" encoding="utf-8"?>
<!-- Generator: Adobe Illustrator 16.0.4, SVG Export Plug-In . SVG Version: 6.00 Build 0)  -->
<!DOCTYPE svg PUBLIC "-//W3C//DTD SVG 1.1//EN" "http://www.w3.org/Graphics/SVG/1.1/DTD/svg11.dtd">
<svg version="1.1" id="Layer_1" xmlns="http://www.w3.org/2000/svg" xmlns:xlink="http://www.w3.org/1999/xlink" x="0px" y="0px"
	 width="100px" height="100px" viewBox="0 0 100 100" enable-background="new 0 0 100 100" xml:space="preserve">
<path fill="#FFFFFF" d="M67.023,59.854l-3.701-3.378l-3.506-3.258l-3.158-2.954L53.287,47.1l-3.731-3.499l-3.476-3.317v-6.241
	v-5.877V21.5h-4.498h-4.634h-5.837h-4.514l0.227,0.863l0.646,2.954l-0.286,1.97l-0.03,1.758l-0.497,1.014l-0.632,0.817l-0.03,0.758
	l0.075,0.454l0.571,0.5l2.167,3.469l0.105,0.439l-0.15,0.499l-0.03,1.016l0.797,3.182l0.572,0.636l0.662,0.924l1.535,1.605
	l0.286,0.652l-0.015,0.727l0.18,0.349l0.662,0.515l0.527,0.091l0.166,0.258l0.301,0.091l0.271-0.243l0.075-0.196l0.076-1.242
	l1.188,0.076l1.113,0.378l-0.602,0.379l-0.526,0.121l-0.421,0.5l0.105,0.546l0.873,1.514l0.075,0.5l-0.752-0.574l-0.466-0.591
	l-0.166-0.5l-0.376-0.075l-0.135,0.666l0.105,0.604l0.451,0.985l0.331,1.666l0.783,0.818l1.128,0.213l0.496,0.832l0.016,1.014
	l-0.557,0.501l0.06,1.105l0.181,0.38l1.91,2.074l1.038,1.605l1.339,1.333l0.512,0.288l0.075,0.971l0.692,0.348l0.452,0.605
	l0.075,0.212l-0.196,0.606l0.045,0.758l0.225,1.227l0.196,0.349l0.586,0.195l1.61,0.274l1.038,0.543l0.421-0.256l0.572,0.09
	l0.827,0.471l0.767,0.289l0.392,0.543l1.339,0.531l0.511,0.318l0.316,0.318l0.256-0.531l0.376-0.016l0.347,0.197l0.691,0.621
	l0.195,0.895l0.091,0.182l1.188,0.105l1.008,0.622l0.662,0.546l1.204,1.378l0.753,0.696l0.48,0.833l0.285,2.257l0.166,0.605
	l10.712-0.879l0.422-0.514l0.722,0.061l0.377-0.773l-0.046-0.605l-1.083-0.635l0.119-0.729l-0.285-0.5V73.35l0.422-0.09l0.541-0.818
	l0.016-0.697l0.18-0.227l-0.166-1.349l0.452-0.378l0.151-0.5l1.293-0.955l-0.541-1.074l-0.662-0.44l-1.189-1.984l-0.029-0.636
	L67.023,59.854"/>
</svg>
