<?xml version="1.0" encoding="utf-8"?>
<!-- Generator: Adobe Illustrator 16.0.4, SVG Export Plug-In . SVG Version: 6.00 Build 0)  -->
<!DOCTYPE svg PUBLIC "-//W3C//DTD SVG 1.1//EN" "http://www.w3.org/Graphics/SVG/1.1/DTD/svg11.dtd">
<svg version="1.1" id="Layer_1" xmlns="http://www.w3.org/2000/svg" xmlns:xlink="http://www.w3.org/1999/xlink" x="0px" y="0px"
	 width="100px" height="100px" viewBox="0 0 100 100" enable-background="new 0 0 100 100" xml:space="preserve">
<path fill="#FFFFFF" d="M49.999,39.291c1.629-3.154,4.48-6.208,8.554-6.208c2.38,0,4.574,0.996,6.579,2.989
	c1.91,1.89,2.869,3.79,2.869,5.703c0,2.856-0.912,5.847-2.728,8.977c-1.567,2.693-3.823,5.536-6.769,8.528
	c-2.225,2.265-5.091,4.837-8.599,7.722c-3.041-2.508-5.765-4.998-8.177-7.479c-2.947-3.046-5.233-5.89-6.863-8.532
	c-1.909-3.125-2.867-5.928-2.867-8.406c0-2.373,0.846-4.515,2.54-6.428C36.388,34.049,38.641,33,41.307,33
	C45.502,33,48.401,36.083,49.999,39.291z"/>
</svg>
