<?xml version="1.0" encoding="utf-8"?>
<!-- Generator: Adobe Illustrator 16.0.4, SVG Export Plug-In . SVG Version: 6.00 Build 0)  -->
<!DOCTYPE svg PUBLIC "-//W3C//DTD SVG 1.1//EN" "http://www.w3.org/Graphics/SVG/1.1/DTD/svg11.dtd">
<svg version="1.1" id="Layer_1" xmlns="http://www.w3.org/2000/svg" xmlns:xlink="http://www.w3.org/1999/xlink" x="0px" y="0px"
	 width="100px" height="100px" viewBox="0 0 100 100" enable-background="new 0 0 100 100" xml:space="preserve">
<path fill="#FFFFFF" d="M57.228,53.906h-13.21l-1.887-9.549h0.005l-0.588-1.448h-2.55V41h3.776l1.378,3.357h16.85L57.228,53.906z
	 M45.48,55.181c1.043,0,1.888,0.855,1.888,1.91c0,1.056-0.845,1.909-1.888,1.909c-1.042,0-1.887-0.854-1.887-1.909
	C43.594,56.036,44.438,55.181,45.48,55.181z M55.471,55.181c1.041,0,1.886,0.855,1.886,1.91S56.512,59,55.471,59
	c-1.043,0-1.888-0.854-1.888-1.909S54.428,55.181,55.471,55.181z"/>
</svg>
