<?xml version="1.0" encoding="utf-8"?>
<!-- Generator: Adobe Illustrator 16.0.4, SVG Export Plug-In . SVG Version: 6.00 Build 0)  -->
<!DOCTYPE svg PUBLIC "-//W3C//DTD SVG 1.1//EN" "http://www.w3.org/Graphics/SVG/1.1/DTD/svg11.dtd">
<svg version="1.1" id="Layer_1" xmlns="http://www.w3.org/2000/svg" xmlns:xlink="http://www.w3.org/1999/xlink" x="0px" y="0px"
	 width="100px" height="100px" viewBox="0 0 100 100" enable-background="new 0 0 100 100" xml:space="preserve">
<g>
	<g>
		<path fill="#FFFFFF" d="M21.88,46.787c4.062-4.62,13.858-0.938,19.338-1.204c2.69-0.13,5.188-0.803,7.693-2.583
			c0.456,0.293,0.874,0.328,0.958,0.332h0.017c0.083-0.004,0.501-0.039,0.958-0.332c2.506,1.78,5.002,2.453,7.694,2.583
			c5.479,0.267,15.275-3.416,19.337,1.205c0.791,0.9,1.726-3.198-2.665-3.198c-1.564,0,0.574-3.073-2.974-1.289
			c-0.809,0.406-2.443,2.187-2.667,0.464c-0.219-1.694-4.345,1.148-4.793,1.496c-1.354,1.047-3.317,1.083-4.896,1.083
			c-3.561,0-3.001-2.681-1.691-2.681c0.873,0,3.904,1.559,5.844,0.296c1.261-0.821,1.591-4.322-0.461-2.256
			c-1.13,1.135-3.887,0.589-6.022,1.165c-1.461,0.393-2.195,2.243-3.648,1.82c-0.646-0.188-1.589-0.602-2.526-1.161
			c0.151-0.182,0.295-0.404,0.415-0.678c1.244,0.887,1.796,0.971,2.831,0.126c-0.314-0.249-0.459-0.74-0.527-1.143
			c-1.392,0.218-2.81,0.333-4.216,0.333c-1.408,0-2.824-0.115-4.217-0.333c-0.068,0.402-0.212,0.894-0.527,1.143
			c1.036,0.844,1.587,0.761,2.831-0.127c0.122,0.274,0.264,0.496,0.416,0.677c-0.938,0.56-1.881,0.975-2.528,1.162
			c-1.451,0.423-2.185-1.428-3.647-1.82c-2.135-0.576-4.893-0.03-6.021-1.165c-2.053-2.065-1.723,1.435-0.462,2.256
			c1.94,1.262,4.972-0.296,5.845-0.296c1.31,0,1.868,2.681-1.691,2.681c-1.578,0-3.543-0.036-4.896-1.083
			c-0.448-0.348-4.574-3.19-4.793-1.496c-0.224,1.723-1.858-0.058-2.667-0.464c-3.548-1.784-1.41,1.289-2.973,1.289
			C20.155,43.589,21.088,47.687,21.88,46.787z M49.877,39.32c-1.316,0-2.64-0.097-3.947-0.278c-0.036,0.064-0.066,0.132-0.082,0.208
			c-0.014,0.071-0.029,0.143-0.044,0.214c-0.086,0.404,0.206,0.81,0.654,0.885c2.264,0.379,4.575,0.379,6.837,0
			c0.449-0.075,0.741-0.481,0.655-0.885c-0.016-0.071-0.029-0.143-0.045-0.214c-0.017-0.076-0.046-0.144-0.081-0.208
			C52.518,39.223,51.193,39.32,49.877,39.32z M52.382,36.325c2.576-4.059-2.504-8.181-2.504-8.181s-5.081,4.122-2.504,8.181
			C49.037,36.485,50.718,36.485,52.382,36.325z M45.217,38.423c3.072,0.514,6.249,0.514,9.32,0c0.24-0.04,0.452-0.172,0.58-0.362
			c0.114-0.167,0.153-0.361,0.114-0.549l-0.062-0.295c-0.087-0.408-0.499-0.688-0.935-0.619c-0.743,0.125-1.493,0.216-2.246,0.276
			c-1.404,0.112-2.82,0.112-4.224,0c-0.753-0.06-1.503-0.15-2.246-0.276c-0.046-0.006-0.092-0.011-0.137-0.011
			c-0.384,0-0.72,0.266-0.797,0.63l-0.061,0.293c-0.041,0.19,0,0.384,0.113,0.551C44.766,38.251,44.978,38.384,45.217,38.423z
			 M92.691,55.424c-6.194,7.078-21.132,1.439-29.487,1.846c-4.63,0.225-8.883,1.505-13.204,5.092
			c-4.321-3.587-8.574-4.867-13.207-5.092c-8.354-0.406-23.291,5.232-29.484-1.846c-1.207-1.378-2.63,4.898,4.065,4.898
			c2.384,0-0.878,4.708,4.533,1.976c1.232-0.623,3.725-3.35,4.066-0.711c0.334,2.596,6.625-1.758,7.309-2.291
			c2.064-1.604,5.059-1.658,7.465-1.658c5.428,0,4.575,4.107,2.579,4.107c-1.331,0-5.954-2.389-8.911-0.456
			c-1.923,1.259-2.427,6.621,0.703,3.458c1.722-1.739,5.927-0.902,9.184-1.785c2.228-0.601,3.348-3.437,5.562-2.788
			c1.351,0.394,3.55,1.434,5.414,2.813c-0.068,0.061-0.137,0.116-0.206,0.179c-2.955,2.68-5.362,8.69,0.626,8.69
			c0.123-0.003,0.217-0.01,0.303-0.019c0.086,0.009,0.18,0.016,0.303,0.019c5.989,0,3.582-6.011,0.625-8.69
			c-0.068-0.062-0.137-0.117-0.205-0.178c1.863-1.38,4.063-2.421,5.414-2.814c2.213-0.648,3.333,2.188,5.562,2.788
			c3.256,0.883,7.461,0.046,9.183,1.785c3.129,3.163,2.626-2.199,0.704-3.458c-2.959-1.933-7.581,0.456-8.913,0.456
			c-1.996,0-2.848-4.107,2.579-4.107c2.406,0,5.403,0.055,7.465,1.658c0.685,0.533,6.977,4.887,7.31,2.291
			c0.341-2.639,2.834,0.088,4.066,0.711c5.41,2.732,2.149-1.976,4.533-1.976C95.321,60.322,93.897,54.046,92.691,55.424z
			 M52.666,67.92c-0.049,1.768-1.886,2.849-2.666,3.421c-0.78-0.572-2.617-1.653-2.665-3.421c-0.042-1.547,1.118-3.072,2.665-4.365
			C51.548,64.848,52.708,66.373,52.666,67.92z"/>
	</g>
</g>
</svg>
