<?xml version="1.0" encoding="utf-8"?>
<!-- Generator: Adobe Illustrator 16.0.4, SVG Export Plug-In . SVG Version: 6.00 Build 0)  -->
<!DOCTYPE svg PUBLIC "-//W3C//DTD SVG 1.1//EN" "http://www.w3.org/Graphics/SVG/1.1/DTD/svg11.dtd">
<svg version="1.1" id="Layer_1" xmlns="http://www.w3.org/2000/svg" xmlns:xlink="http://www.w3.org/1999/xlink" x="0px" y="0px"
	 width="100px" height="100px" viewBox="0 0 100 100" enable-background="new 0 0 100 100" xml:space="preserve">
<g>
	<g>
		<path fill="#FFFFFF" d="M59.341,45.546v-3.899l-0.509,0.002l-3.391,0.011l0.013,3.899L59.341,45.546z M50,30
			c-11.046,0-20,8.954-20,20s8.954,20,20,20s20-8.954,20-20S61.046,30,50,30z M62.003,57.557c0,2.452-1.994,4.446-4.446,4.446
			H43.443c-2.452,0-4.446-1.994-4.446-4.446V43.442c0-2.451,1.994-4.445,4.446-4.445h14.113c2.452,0,4.446,1.994,4.446,4.445V57.557
			z M50.5,54.549c2.231,0,4.05-1.817,4.05-4.049c0-0.882-0.287-1.695-0.767-2.361c-0.736-1.02-1.932-1.688-3.283-1.688
			s-2.547,0.669-3.283,1.688c-0.479,0.666-0.766,1.479-0.766,2.361C46.451,52.731,48.268,54.549,50.5,54.549z M56.791,50.5
			c0,3.468-2.822,6.291-6.291,6.291s-6.291-2.823-6.291-6.291c0-0.835,0.167-1.632,0.464-2.361h-3.435v9.418
			c0,1.217,0.988,2.205,2.205,2.205h14.113c1.216,0,2.205-0.988,2.205-2.205v-9.418h-3.436C56.623,48.868,56.791,49.665,56.791,50.5
			z"/>
	</g>
</g>
</svg>
