<?xml version="1.0" encoding="utf-8"?>
<!-- Generator: Adobe Illustrator 16.0.4, SVG Export Plug-In . SVG Version: 6.00 Build 0)  -->
<!DOCTYPE svg PUBLIC "-//W3C//DTD SVG 1.1//EN" "http://www.w3.org/Graphics/SVG/1.1/DTD/svg11.dtd">
<svg version="1.1" id="Layer_1" xmlns="http://www.w3.org/2000/svg" xmlns:xlink="http://www.w3.org/1999/xlink" x="0px" y="0px"
	 width="100px" height="100px" viewBox="0 0 100 100" enable-background="new 0 0 100 100" xml:space="preserve">
<path fill="#FFFFFF" d="M50,60.007c-5.526,0-10.007-4.48-10.007-10.007S44.474,39.993,50,39.993S60.007,44.474,60.007,50
	S55.526,60.007,50,60.007z M53.82,57.797c1.506-0.768,2.758-1.963,3.594-3.428l-2.688-2.109c-0.509,1.062-1.365,1.926-2.422,2.445
	L53.82,57.797z M46.062,57.834l1.831-3.037c-1.165-0.514-2.108-1.438-2.645-2.59l-2.885,2.11
	C43.214,55.829,44.505,57.061,46.062,57.834z M46.24,42.263c-1.757,0.823-3.19,2.221-4.061,3.95l2.895,2.005
	c0.478-1.319,1.469-2.391,2.732-2.975L46.24,42.263z M46.17,50c0,2.115,1.715,3.83,3.83,3.83s3.83-1.715,3.83-3.83
	c0-2.116-1.715-3.83-3.83-3.83S46.17,47.884,46.17,50z M53.623,42.29l-1.464,2.938c1.284,0.582,2.292,1.667,2.771,3.004l2.673-2.066
	C56.74,44.476,55.338,43.108,53.623,42.29z"/>
</svg>
