<?xml version="1.0" encoding="utf-8"?>
<!-- Generator: Adobe Illustrator 16.0.4, SVG Export Plug-In . SVG Version: 6.00 Build 0)  -->
<!DOCTYPE svg PUBLIC "-//W3C//DTD SVG 1.1//EN" "http://www.w3.org/Graphics/SVG/1.1/DTD/svg11.dtd">
<svg version="1.1" id="Layer_1" xmlns="http://www.w3.org/2000/svg" xmlns:xlink="http://www.w3.org/1999/xlink" x="0px" y="0px"
	 width="100px" height="100px" viewBox="0 0 100 100" enable-background="new 0 0 100 100" xml:space="preserve">
<path fill="#FFFFFF" d="M36.322,64.269l2.142,2.679l2.033,2.457l2.582,0.727l1.977,1.952l3.132,0.116l-0.056,4.297l0.442,1.004
	l2.251-2.619l3.352-5.477l2.307-2.066l1.207-2.231v-1.282l1.596-0.838l0.656-0.838l1.154-6.253l0.553-0.895l0.709,0.334l0.609-0.334
	l1.264-4.581l0.271-1.73l-0.438-1.508l-1.65-2.234l-2.248-1.171l-0.332-0.67V41.71l1.318-2.57l0.877-0.949l2.311-6.756L50.331,22.5
	l-2.254,2.121l-2.582,4.636l-2.635,2.178l1.262,2.569l-0.877,2.013l-1.264,0.778l-0.166,1.786l-0.107-0.163l0.272,2.788l1.867,0.393
	l0.438,2.901l1.483,0.447l4.124,5.586l-5.217,3.294l-1.595,1.618l0.331,1.009l-0.549,0.612l-3.627,1.059l-1.043,0.785l-1.045,0.947
	l-1.646,3.015L36.322,64.269"/>
</svg>
