<?xml version="1.0" encoding="utf-8"?>
<!-- Generator: Adobe Illustrator 16.0.4, SVG Export Plug-In . SVG Version: 6.00 Build 0)  -->
<!DOCTYPE svg PUBLIC "-//W3C//DTD SVG 1.1//EN" "http://www.w3.org/Graphics/SVG/1.1/DTD/svg11.dtd">
<svg version="1.1" id="Layer_1" xmlns="http://www.w3.org/2000/svg" xmlns:xlink="http://www.w3.org/1999/xlink" x="0px" y="0px"
	 width="50px" height="50px" viewBox="0 0 50 50" enable-background="new 0 0 50 50" xml:space="preserve">
<g>
	<path fill="#FFFFFF" d="M22.466,33.458c-0.456,0.006-0.928,0.229-1.298,0.611l-4.359,4.5c-0.648,0.668-0.756,1.619-0.241,2.121
		c0.518,0.5,1.466,0.361,2.114-0.307l4.36-4.502c0.37-0.381,0.577-0.861,0.569-1.317c-0.006-0.323-0.12-0.603-0.331-0.802
		C23.072,33.558,22.79,33.453,22.466,33.458z"/>
	<path fill="#FFFFFF" d="M41.254,16.398c-2.824-3.036-8.217-2.628-12.019,0.91c-1.292,1.204-2.284,2.663-2.87,4.217
		c-0.484,1.287-0.656,2.563-0.561,3.759c-0.056,0.846-0.059,1.486-0.059,1.555c0.032,1.306-0.329,2.454-0.796,3.388
		c-0.422-0.896-0.736-1.974-0.707-3.188c0-0.07-0.002-0.706-0.057-1.547c0.097-1.199-0.075-2.48-0.562-3.771
		c-0.583-1.555-1.576-3.014-2.87-4.217c-2.109-1.965-4.775-3.04-7.314-2.95c-1.873,0.067-3.543,0.792-4.705,2.04
		c-2.828,3.038-2.036,8.387,1.764,11.924c2.047,1.907,4.618,2.966,7.089,2.943c0.84,0.077,1.826,0.098,2.982,0.007
		c0.168,0.054,1.395,0.446,2.667,1.124c-0.124,0.122-0.206,0.194-0.21,0.198l-0.157,0.132l0.156,0.133l1.217,1.043l0.134,0.114
		l0.113-0.134c0.12-0.14,0.254-0.272,0.395-0.402c0.226,0.189,0.434,0.389,0.614,0.599l0.114,0.133l0.132-0.112l1.218-1.044
		l0.156-0.134l-0.156-0.134c-0.007-0.006-0.189-0.163-0.456-0.451c1.36-0.762,2.744-1.205,2.917-1.26
		c1.165,0.092,2.156,0.069,3.001-0.009c2.374,0.013,4.965-0.982,7.067-2.942c2.11-1.964,3.373-4.547,3.463-7.086
		C43.021,19.365,42.417,17.647,41.254,16.398z M9.81,23.685l1.699,1.731l-1.02,1.045c-0.55-0.673-1-1.389-1.333-2.122L9.81,23.685z
		 M8.942,23.812c-0.178-0.471-0.312-0.945-0.397-1.416l0.898,0.915L8.942,23.812z M10.181,23.314l1.296-1.296l1.727,1.659
		l-1.329,1.363L10.181,23.314z M22.483,25.093l0.337-0.353c0.021,1.021-0.205,1.97-0.655,2.785l-2.146-2.013l1.394-1.44
		L22.483,25.093z M21.777,23.697l0.759-0.784c0.17,0.604,0.264,1.199,0.28,1.774L21.777,23.697z M27.17,24.544l0.338,0.354
		l1.069-1.02l1.395,1.44l-2.146,2.014C27.375,26.516,27.149,25.567,27.17,24.544z M27.174,24.492c0.017-0.575,0.11-1.17,0.279-1.774
		l0.76,0.784L27.174,24.492z M28.493,28.281c-0.221-0.237-0.404-0.499-0.57-0.772l0.225,0.239l2.189-2.054l1.635,1.688l-1.981,1.903
		l0.119,0.124C29.502,29.146,28.953,28.773,28.493,28.281z M30.719,25.336l1.632-1.531l1.632,1.645l-1.634,1.569L30.719,25.336z
		 M32.733,23.446l1.719-1.611l1.593,1.634l-1.685,1.618L32.733,23.446z M34.834,21.476l1.72-1.613l1.589,1.589l-1.72,1.653
		L34.834,21.476z M34.468,21.101l-1.436-1.472l1.682-1.604l1.469,1.468L34.468,21.101z M34.086,21.459l-1.722,1.614l-1.431-1.443
		l1.72-1.64L34.086,21.459z M31.981,23.433l-1.627,1.527l-1.397-1.443l1.597-1.523L31.981,23.433z M17.638,23.997l1.633,1.533
		l-1.631,1.684l-1.634-1.57L17.638,23.997z M15.629,25.28l-1.682-1.616l1.594-1.634l1.714,1.608L15.629,25.28z M19.655,25.89
		l2.186,2.051l0.231-0.247c-0.167,0.277-0.353,0.544-0.577,0.784c-0.457,0.49-1.005,0.871-1.627,1.14l0.131-0.137l-1.979-1.902
		L19.655,25.89z M19.636,25.153l-1.629-1.528l1.427-1.439l1.599,1.525L19.636,25.153z M17.625,23.267l-1.718-1.612l1.431-1.467
		l1.716,1.637L17.625,23.267z M15.525,21.297l-1.717-1.611l1.466-1.466l1.686,1.607L15.525,21.297z M15.16,21.672l-1.59,1.63
		l-1.722-1.655l1.59-1.59L15.16,21.672z M13.581,24.041l1.678,1.613l-1.399,1.411l-1.619-1.65L13.581,24.041z M15.637,26.017
		l1.639,1.574l-1.439,1.486l-1.609-1.639L15.637,26.017z M16.204,29.452l1.45-1.497l1.852,1.779
		c-0.54,0.188-1.117,0.314-1.745,0.337c-0.477,0.018-0.961-0.023-1.445-0.103l0.201-0.197L16.204,29.452z M30.471,29.552
		l1.865-1.792l1.449,1.496l-0.314,0.321l0.202,0.198C32.542,29.962,31.442,29.892,30.471,29.552z M34.152,28.883l-1.438-1.486
		l1.638-1.574l1.409,1.422L34.152,28.883z M34.729,25.459l1.682-1.616l1.34,1.374l-1.622,1.653L34.729,25.459z M36.789,23.48
		l1.725-1.658l1.297,1.297l-1.692,1.724L36.789,23.48z M40.182,23.49l0.647,0.647c-0.336,0.742-0.782,1.457-1.329,2.123
		l-1.016-1.042L40.182,23.49z M40.548,23.117l0.89-0.906c-0.086,0.474-0.209,0.946-0.384,1.411L40.548,23.117z M41.085,21.822
		l-0.908,0.925l-1.286-1.286l2.391-2.297c0.202,0.621,0.301,1.298,0.275,2.024c-0.012,0.329-0.055,0.658-0.112,0.987L41.085,21.822z
		 M41.263,19.085l-0.315-0.328L38.52,21.09l-1.584-1.584l2.667-2.502l-0.358-0.382l-2.68,2.514l-1.472-1.472l1.664-1.587l-0.3-0.315
		c1.473,0.044,2.815,0.562,3.774,1.591C40.695,17.85,41.04,18.434,41.263,19.085z M36.332,15.755l-1.61,1.537l-1.073-1.073
		C34.553,15.903,35.463,15.746,36.332,15.755z M30.188,18.33c1.043-0.969,2.217-1.668,3.406-2.093l-0.334,0.334l1.083,1.083
		l-1.677,1.599l-1.521-1.559l-0.375,0.366l1.516,1.554l-1.722,1.643l-1.346-1.356l-0.373,0.369l1.339,1.35l-1.593,1.52l-0.791-0.817
		l-0.32,0.31c0.06-0.205,0.116-0.409,0.193-0.615C28.184,20.663,29.053,19.388,30.188,18.33z M22.315,22.214
		c0.077,0.205,0.134,0.408,0.193,0.612l-0.32-0.31l-0.792,0.817l-1.595-1.521l1.339-1.351l-0.372-0.369l-1.346,1.358l-1.719-1.64
		l1.517-1.556l-0.375-0.366l-1.521,1.56l-1.681-1.603l1.084-1.084l-0.326-0.326c1.208,0.432,2.375,1.135,3.399,2.089
		C20.938,19.585,21.807,20.859,22.315,22.214z M15.266,17.487l-1.606-1.532c0.888-0.01,1.792,0.151,2.678,0.46L15.266,17.487z
		 M13.49,15.951c0.015,0,0.031,0.001,0.046,0.001l-0.305,0.319l1.664,1.586l-1.469,1.469l-2.679-2.514l-0.358,0.382l2.667,2.502
		l-1.585,1.586l-2.427-2.332l-0.307,0.319c0.22-0.637,0.555-1.223,1.021-1.725C10.679,16.558,11.969,16.006,13.49,15.951z
		 M8.709,19.359l2.389,2.296L9.813,22.94l-0.907-0.925l-0.366,0.359C8.352,21.318,8.407,20.286,8.709,19.359z M10.83,26.861
		l1.045-1.071l1.616,1.646l-0.762,0.769l0.372,0.369l0.757-0.764l2.039,2.078c-1.573-0.345-3.128-1.166-4.445-2.394
		C11.232,27.29,11.026,27.078,10.83,26.861z M34.092,29.693l2.039-2.076l0.756,0.763l0.373-0.369l-0.762-0.769l1.619-1.649
		l1.046,1.072c-0.198,0.218-0.405,0.431-0.625,0.635C37.192,28.554,35.627,29.354,34.092,29.693z"/>
	<path fill="#FFFFFF" d="M28.821,34.264c-0.368-0.382-0.841-0.604-1.297-0.61c-0.325-0.006-0.606,0.1-0.815,0.303
		c-0.517,0.5-0.409,1.451,0.238,2.122l4.361,4.501c0.646,0.669,1.594,0.808,2.113,0.31c0.516-0.505,0.408-1.458-0.24-2.125
		L28.821,34.264z"/>
	<path fill="#FFFFFF" d="M24.971,16.719c0.287,0,0.568-0.032,0.837-0.091c-0.224-0.365-0.853-1.22-2.049-1.723
		c-0.062-0.029-1.483-0.698-1.792-1.952c-0.166-0.68,0.026-1.384,0.57-2.09l-0.013,0.02c0.024-0.039,0.648-0.971,1.679-1.07
		c0.684-0.064,1.364,0.249,2.021,0.931l0.021,0.021l0.017,0.027c0.383,0.592,1.58,2.082,2.639,2.11
		c0.002-0.046,0.003-0.09,0.003-0.136c0-2.183-1.76-3.954-3.933-3.954c-2.174,0.001-3.935,1.771-3.935,3.954
		C21.036,14.951,22.797,16.719,24.971,16.719z"/>
	<path fill="#FFFFFF" d="M25.768,11.151c-0.514-0.528-1.02-0.773-1.502-0.73c-0.739,0.067-1.228,0.79-1.231,0.796l-0.008,0.01
		l-0.006,0.008c-0.426,0.553-0.582,1.081-0.461,1.572c0.235,0.967,1.443,1.541,1.445,1.542c1.507,0.632,2.219,1.761,2.404,2.097
		c1.24-0.491,2.172-1.592,2.424-2.938C27.329,13.422,25.95,11.425,25.768,11.151z"/>
</g>
</svg>
