<?xml version="1.0" encoding="utf-8"?>
<!-- Generator: Adobe Illustrator 16.0.4, SVG Export Plug-In . SVG Version: 6.00 Build 0)  -->
<!DOCTYPE svg PUBLIC "-//W3C//DTD SVG 1.1//EN" "http://www.w3.org/Graphics/SVG/1.1/DTD/svg11.dtd">
<svg version="1.1" id="Layer_1" xmlns="http://www.w3.org/2000/svg" xmlns:xlink="http://www.w3.org/1999/xlink" x="0px" y="0px"
	 width="100px" height="100px" viewBox="0 0 100 100" enable-background="new 0 0 100 100" xml:space="preserve">
<g>
	<path fill="#FFFFFF" d="M76.213,51.146L70.869,35.13c-0.102-0.301-0.324-0.544-0.615-0.669c-0.294-0.125-0.623-0.12-0.91,0.015
		l-0.361,0.17c-0.397,0.185-0.648,0.586-0.641,1.025l0.209,12.133l-4.209,7.116l-1.295-1.124l2.266-8.803
		c0.132-0.507-0.109-1.036-0.578-1.271l-0.359-0.18c-0.275-0.137-0.596-0.155-0.883-0.048c-0.289,0.106-0.52,0.328-0.639,0.612
		l-5.49,13.062c-0.058,0.137-0.087,0.283-0.087,0.431v12.618c0,0.613,0.497,1.111,1.11,1.111h8.162c0.614,0,1.111-0.498,1.111-1.111
		v-5.453l8.424-12.651C76.273,51.827,76.321,51.471,76.213,51.146z"/>
	<path fill="#FFFFFF" d="M37.148,44.106c-0.12-0.283-0.351-0.504-0.639-0.611c-0.289-0.107-0.609-0.09-0.883,0.048l-0.36,0.18
		c-0.468,0.234-0.709,0.764-0.579,1.271l2.267,8.803l-1.295,1.125l-4.208-7.117l0.208-12.133c0.007-0.438-0.244-0.84-0.641-1.026
		l-0.362-0.169c-0.287-0.133-0.617-0.139-0.909-0.015c-0.292,0.125-0.515,0.369-0.615,0.67l-5.344,16.014
		c-0.108,0.325-0.061,0.683,0.129,0.968l8.425,12.65v5.452c0,0.613,0.497,1.11,1.111,1.11h8.163c0.614,0,1.111-0.497,1.111-1.11
		V57.6c0-0.147-0.03-0.295-0.087-0.431L37.148,44.106z"/>
	<path fill="#FFFFFF" d="M50.164,52.795c0.021-0.006,0.041-0.014,0.062-0.021c0.042-0.014,0.083-0.028,0.122-0.047
		c0.025-0.013,0.049-0.026,0.072-0.041c0.025-0.014,0.051-0.025,0.074-0.041c0.002,0,0.002,0,0.003-0.001l7.792-5.328
		c0,0,0.001-0.001,0.001-0.001l0.005-0.003c0.016-0.01,0.025-0.022,0.041-0.034c0.043-0.033,0.086-0.066,0.124-0.105
		c0.024-0.025,0.044-0.053,0.066-0.08c0.022-0.029,0.048-0.056,0.069-0.087c0.02-0.03,0.035-0.062,0.051-0.094
		c0.018-0.032,0.036-0.063,0.049-0.097c0.016-0.034,0.022-0.07,0.033-0.104c0.011-0.035,0.022-0.067,0.029-0.103
		c0.01-0.052,0.014-0.106,0.016-0.159c0.002-0.018,0.006-0.036,0.006-0.054v-0.007v-0.001v-3.938l3.855-2.562
		c0.073-0.048,0.135-0.104,0.192-0.166c0.015-0.014,0.024-0.031,0.038-0.046c0.052-0.062,0.096-0.127,0.133-0.197
		c0.007-0.013,0.017-0.021,0.023-0.034c0.005-0.01,0.006-0.02,0.011-0.03c0.016-0.035,0.028-0.071,0.04-0.108
		c0.012-0.034,0.023-0.068,0.031-0.103c0.008-0.032,0.01-0.065,0.015-0.099c0.005-0.039,0.011-0.077,0.013-0.115
		c0.001-0.034-0.003-0.066-0.005-0.1c-0.003-0.038-0.004-0.075-0.011-0.112c-0.006-0.034-0.016-0.068-0.025-0.102
		c-0.01-0.036-0.017-0.071-0.029-0.105c-0.013-0.032-0.028-0.061-0.043-0.092c-0.018-0.036-0.035-0.071-0.056-0.104
		c-0.006-0.01-0.009-0.02-0.015-0.028c-0.014-0.019-0.03-0.035-0.045-0.053c-0.023-0.031-0.048-0.062-0.076-0.092
		c-0.025-0.027-0.051-0.05-0.079-0.075c-0.026-0.023-0.054-0.046-0.082-0.067c-0.034-0.024-0.069-0.045-0.106-0.064
		c-0.018-0.011-0.035-0.024-0.055-0.034l-2.373-1.146l2.862-1.513c0.007-0.003,0.011-0.008,0.017-0.012
		c0.021-0.012,0.039-0.026,0.059-0.039c0.058-0.036,0.109-0.076,0.158-0.121c0.02-0.019,0.039-0.038,0.058-0.058
		c0.053-0.057,0.1-0.117,0.139-0.183c0.006-0.01,0.015-0.017,0.021-0.027c0.002-0.003,0.002-0.006,0.004-0.01
		c0.021-0.039,0.037-0.082,0.055-0.124c0.01-0.027,0.023-0.052,0.032-0.079c0.012-0.036,0.015-0.073,0.023-0.11
		c0.007-0.033,0.017-0.066,0.021-0.101c0.006-0.05,0.004-0.101,0.002-0.151c-0.001-0.02,0.003-0.041,0-0.061
		c-0.003-0.045-0.014-0.09-0.023-0.135c-0.006-0.026-0.008-0.052-0.015-0.077c-0.009-0.031-0.022-0.06-0.034-0.09
		c-0.016-0.039-0.027-0.079-0.047-0.116c-0.002-0.004-0.002-0.007-0.005-0.011c-0.013-0.023-0.029-0.043-0.044-0.065
		c-0.022-0.037-0.045-0.075-0.072-0.11c-0.021-0.027-0.047-0.049-0.072-0.075c-0.025-0.027-0.051-0.056-0.08-0.081
		c-0.033-0.028-0.067-0.049-0.104-0.072c-0.021-0.015-0.043-0.033-0.066-0.047l-8.07-4.532c-0.009-0.005-0.016-0.006-0.023-0.011
		c-0.032-0.016-0.064-0.029-0.098-0.043c-0.037-0.016-0.074-0.032-0.111-0.043c-0.021-0.006-0.043-0.009-0.062-0.014
		c-0.051-0.012-0.101-0.022-0.15-0.027c-0.016-0.001-0.031,0-0.047-0.001c-0.057-0.002-0.111-0.003-0.167,0.002
		c-0.017,0.001-0.034,0.007-0.052,0.01c-0.053,0.008-0.107,0.018-0.158,0.033c-0.02,0.006-0.038,0.016-0.059,0.022
		c-0.049,0.018-0.097,0.037-0.143,0.062c-0.006,0.003-0.012,0.004-0.016,0.007l-3.992,2.234l-3.992-2.234
		c-0.007-0.004-0.015-0.005-0.021-0.009c-0.039-0.021-0.081-0.037-0.123-0.053c-0.026-0.01-0.051-0.022-0.078-0.03
		c-0.046-0.014-0.093-0.021-0.14-0.03c-0.023-0.003-0.045-0.01-0.068-0.013c-0.054-0.006-0.107-0.004-0.161-0.002
		c-0.017,0-0.033-0.001-0.05,0c-0.052,0.005-0.103,0.016-0.154,0.028c-0.02,0.004-0.04,0.007-0.059,0.013
		c-0.04,0.012-0.078,0.029-0.117,0.046c-0.031,0.013-0.062,0.024-0.092,0.041c-0.007,0.004-0.016,0.006-0.023,0.011l-8.07,4.537
		c-0.021,0.013-0.04,0.029-0.06,0.042c-0.038,0.024-0.076,0.048-0.111,0.078c-0.029,0.024-0.053,0.052-0.079,0.079
		c-0.024,0.025-0.05,0.048-0.072,0.076c-0.03,0.037-0.053,0.077-0.078,0.117c-0.012,0.02-0.027,0.037-0.039,0.058
		c-0.001,0.003-0.002,0.006-0.004,0.009c-0.023,0.044-0.039,0.09-0.056,0.137c-0.008,0.023-0.02,0.046-0.026,0.069
		c-0.01,0.037-0.015,0.074-0.021,0.111c-0.006,0.034-0.016,0.067-0.018,0.102c-0.002,0.029,0,0.058,0,0.086
		c0,0.042-0.002,0.084,0.002,0.126c0.003,0.029,0.013,0.057,0.018,0.086c0.008,0.042,0.014,0.084,0.027,0.125
		c0.007,0.022,0.019,0.044,0.027,0.065c0.018,0.046,0.036,0.093,0.06,0.139c0.001,0.003,0.002,0.006,0.004,0.009
		c0.004,0.009,0.012,0.015,0.017,0.022c0.04,0.067,0.088,0.13,0.142,0.188c0.019,0.02,0.037,0.039,0.057,0.057
		c0.047,0.044,0.101,0.084,0.157,0.121c0.02,0.013,0.039,0.028,0.059,0.04c0.006,0.003,0.011,0.008,0.017,0.012l2.862,1.513
		l-2.374,1.146c-0.023,0.011-0.042,0.027-0.063,0.04c-0.032,0.018-0.064,0.036-0.094,0.058c-0.032,0.022-0.061,0.047-0.089,0.073
		c-0.025,0.022-0.051,0.044-0.074,0.068c-0.029,0.031-0.054,0.063-0.079,0.096c-0.013,0.017-0.03,0.032-0.042,0.05
		c-0.006,0.009-0.009,0.019-0.015,0.027c-0.021,0.034-0.039,0.07-0.056,0.106c-0.015,0.031-0.031,0.062-0.043,0.093
		c-0.012,0.033-0.02,0.066-0.029,0.101c-0.01,0.036-0.021,0.071-0.027,0.107c-0.005,0.034-0.007,0.069-0.009,0.103
		c-0.002,0.037-0.007,0.073-0.005,0.109c0.001,0.035,0.007,0.07,0.011,0.104c0.004,0.036,0.008,0.073,0.016,0.11
		c0.007,0.031,0.018,0.062,0.028,0.093c0.012,0.04,0.026,0.078,0.043,0.116c0.003,0.01,0.006,0.019,0.01,0.028
		c0.006,0.012,0.016,0.02,0.021,0.032c0.037,0.071,0.082,0.137,0.135,0.199c0.013,0.016,0.023,0.032,0.037,0.046
		c0.057,0.061,0.12,0.116,0.192,0.165l3.856,2.562v3.938v0.001v0.007c0,0.019,0.004,0.036,0.005,0.054
		c0.003,0.053,0.006,0.107,0.016,0.159c0.006,0.036,0.019,0.068,0.03,0.103c0.01,0.035,0.018,0.07,0.032,0.104
		c0.014,0.034,0.033,0.065,0.05,0.098c0.016,0.031,0.031,0.063,0.05,0.093c0.021,0.031,0.046,0.059,0.07,0.088
		c0.021,0.026,0.041,0.055,0.065,0.079c0.039,0.039,0.082,0.072,0.125,0.105c0.014,0.011,0.025,0.024,0.039,0.034l0.005,0.003
		c0,0,0,0.001,0.001,0.001l7.791,5.328c0.001,0.001,0.001,0.001,0.002,0.001c0.022,0.016,0.049,0.027,0.074,0.041
		c0.024,0.015,0.048,0.028,0.073,0.041c0.039,0.019,0.08,0.034,0.121,0.047c0.021,0.008,0.041,0.016,0.062,0.021
		c0.016,0.004,0.031,0.01,0.048,0.014c0.078,0.018,0.159,0.029,0.243,0.029c0,0,0.001,0.001,0.002,0.001l0,0l0,0c0,0,0,0,0.002,0
		l0,0c0,0,0.001-0.001,0.002-0.001c0.084,0,0.164-0.012,0.242-0.029C50.132,52.805,50.148,52.799,50.164,52.795z M55.395,36.822
		l-5.526,2.978l-5.524-2.978l5.524-3.212L55.395,36.822z"/>
</g>
</svg>
