<?xml version="1.0" encoding="utf-8"?>
<!-- Generator: Adobe Illustrator 16.0.4, SVG Export Plug-In . SVG Version: 6.00 Build 0)  -->
<!DOCTYPE svg PUBLIC "-//W3C//DTD SVG 1.1//EN" "http://www.w3.org/Graphics/SVG/1.1/DTD/svg11.dtd">
<svg version="1.1" id="Layer_1" xmlns="http://www.w3.org/2000/svg" xmlns:xlink="http://www.w3.org/1999/xlink" x="0px" y="0px"
	 width="100px" height="100px" viewBox="0 0 100 100" enable-background="new 0 0 100 100" xml:space="preserve">
<g>
	<path fill="#FFFFFF" d="M24.938,43.816v5.761l0,0v5.35v3.703c0,1.812,1.481,3.293,3.292,3.293h43.54
		c1.811,0,3.293-1.481,3.293-3.293V43.816c0-1.811-1.482-3.292-3.293-3.292H28.312C26.501,40.523,25.021,42.005,24.938,43.816z"/>
	<polygon fill="#FFFFFF" points="71.029,64.392 66.008,64.392 69.465,72.622 71.029,72.622 	"/>
	<polygon fill="#FFFFFF" points="33.992,64.392 29.053,64.392 29.053,72.622 30.617,72.622 	"/>
	<path fill="#FFFFFF" d="M29.053,37.725h13.991l-3.456-8.148c-0.823-1.811-2.963-2.716-4.774-1.893l-3.867,1.646
		c-1.811,0.823-1.894,2.222-1.894,4.774V37.725z"/>
</g>
</svg>
