<?xml version="1.0" encoding="utf-8"?>
<!-- Generator: Adobe Illustrator 16.0.4, SVG Export Plug-In . SVG Version: 6.00 Build 0)  -->
<!DOCTYPE svg PUBLIC "-//W3C//DTD SVG 1.1//EN" "http://www.w3.org/Graphics/SVG/1.1/DTD/svg11.dtd">
<svg version="1.1" id="Your_Icon" xmlns="http://www.w3.org/2000/svg" xmlns:xlink="http://www.w3.org/1999/xlink" x="0px" y="0px"
	 width="100px" height="100px" viewBox="0 0 100 100" enable-background="new 0 0 100 100" xml:space="preserve">
<path fill="#FFFFFF" d="M71.207,25.65h2.511l-2.232-5.371h-15.16v-7.316h-5.209v4.465H34.933v2.85h-6.418l-2.232,5.371h2.511v57.692
	h-2.441v3.696h47.296v-3.696h-2.441L71.207,25.65L71.207,25.65z M41.63,78.515h-5.581V67.353h5.581V78.515z M41.63,61.771h-5.581
	V50.61h5.581V61.771z M41.63,45.029h-5.581V33.868h5.581V45.029z M52.79,78.515h-5.58V67.353h5.58V78.515z M52.79,61.771h-5.58
	V50.61h5.58V61.771z M52.79,45.029h-5.58V33.868h5.58V45.029z M63.952,78.515h-5.58V67.353h5.58V78.515z M63.952,61.771h-5.58V50.61
	h5.58V61.771z M63.952,45.029h-5.58V33.868h5.58V45.029z"/>
</svg>
