<?xml version="1.0" encoding="utf-8"?>
<!-- Generator: Adobe Illustrator 16.0.4, SVG Export Plug-In . SVG Version: 6.00 Build 0)  -->
<!DOCTYPE svg PUBLIC "-//W3C//DTD SVG 1.1//EN" "http://www.w3.org/Graphics/SVG/1.1/DTD/svg11.dtd">
<svg version="1.1" id="Your_Icon" xmlns="http://www.w3.org/2000/svg" xmlns:xlink="http://www.w3.org/1999/xlink" x="0px" y="0px"
	 width="100px" height="100px" viewBox="0 0 100 100" enable-background="new 0 0 100 100" xml:space="preserve">
<g>
	<path fill="#FFFFFF" d="M16.666,57.865h-3.703v8.147h4.15h1.991h1.99c0,4.445,3.571,7.975,7.976,7.975s7.975-3.529,7.975-7.975
		h20.361v-40h-40.74V57.865z M29.07,60.755c2.752,0,4.982,2.231,4.982,4.983c0,2.753-2.23,4.983-4.982,4.983
		s-4.983-2.23-4.983-4.983C24.087,62.986,26.318,60.755,29.07,60.755z"/>
	<path fill="#FFFFFF" d="M72.914,30.457H58.889v35.556h6.051c0,4.445,3.569,7.975,7.975,7.975c4.404,0,7.975-3.529,7.975-7.975
		h6.148V49.795L72.914,30.457z M72.914,70.722c-2.752,0-4.983-2.23-4.983-4.983c0-2.752,2.231-4.983,4.983-4.983
		s4.982,2.231,4.982,4.983C77.896,68.491,75.666,70.722,72.914,70.722z M62.592,48.235V34.161h8.328l9.962,14.074H62.592z"/>
</g>
</svg>
