<?xml version="1.0" encoding="utf-8"?>
<!-- Generator: Adobe Illustrator 16.0.4, SVG Export Plug-In . SVG Version: 6.00 Build 0)  -->
<!DOCTYPE svg PUBLIC "-//W3C//DTD SVG 1.1//EN" "http://www.w3.org/Graphics/SVG/1.1/DTD/svg11.dtd">
<svg version="1.1" id="Layer_1" xmlns="http://www.w3.org/2000/svg" xmlns:xlink="http://www.w3.org/1999/xlink" x="0px" y="0px"
	 width="100px" height="100px" viewBox="0 0 100 100" enable-background="new 0 0 100 100" xml:space="preserve">
<g>
	<g>
		<path fill="#FFFFFF" d="M62.078,61.027H68.5v-4.344h-6.422V61.027z M63.991,68.498h4.327v-5.916h-4.327V68.498z M45.986,61.027
			h8.028v-4.344h-8.028V61.027z M47.553,68.498h4.895v-5.916h-4.895V68.498z M47.553,45.391v9.656h4.895v-9.656H47.553z
			 M54.271,68.416h7.807v-4.344h-7.807V68.416z M62.078,46.883h-7.807v6.417h7.807V46.883z M60.166,62.52v-7.838h-4.327v7.838
			H60.166z M37.922,56.684H31.5v4.344h6.422V56.684z M31.682,68.498h4.327v-5.916h-4.327V68.498z M37.922,68.416h7.807v-4.344
			h-7.807V68.416z M39.835,54.682v7.838h4.325v-7.838H39.835z M62.078,39.495v4.343H68.5v-4.343H62.078z M63.991,45.391v9.656h4.327
			v-9.656H63.991z M68.318,31.501h-4.327v6.356h4.327V31.501z M45.986,43.837h8.028v-4.343h-8.028V43.837z M52.447,31.501h-4.895
			v6.356h4.895V31.501z M62.078,31.768h-7.807v4.343h7.807V31.768z M60.166,45.329v-7.837h-4.327v7.837H60.166z M37.922,39.495H31.5
			v4.343h6.422V39.495z M36.009,55.047v-9.656h-4.327v9.656H36.009z M36.009,31.501h-4.327v6.356h4.327V31.501z M37.922,53.301
			h7.807v-6.417h-7.807V53.301z M37.922,36.111h7.807v-4.343h-7.807V36.111z M39.835,37.492v7.837h4.325v-7.837H39.835z"/>
	</g>
</g>
</svg>
