<?xml version="1.0" encoding="utf-8"?>
<!-- Generator: Adobe Illustrator 16.0.4, SVG Export Plug-In . SVG Version: 6.00 Build 0)  -->
<!DOCTYPE svg PUBLIC "-//W3C//DTD SVG 1.1//EN" "http://www.w3.org/Graphics/SVG/1.1/DTD/svg11.dtd">
<svg version="1.1" id="Layer_1" xmlns="http://www.w3.org/2000/svg" xmlns:xlink="http://www.w3.org/1999/xlink" x="0px" y="0px"
	 width="100px" height="100px" viewBox="0 0 100 100" enable-background="new 0 0 100 100" xml:space="preserve">
<path fill="#FFFFFF" d="M62.334,57.436c0.242-0.317,0.222-0.77-0.069-1.062c-0.033-0.032-0.071-0.062-0.109-0.088l-0.001-0.006
	l-4.725-3.378l-0.006,0.004c-0.315-0.233-0.76-0.209-1.048,0.079c-0.026,0.027-0.051,0.059-0.074,0.092v0.001
	c-0.015,0.019-0.029,0.036-0.041,0.058c-0.317,0.453-0.314,0.512-0.57,0.906c-0.364,0.57-0.784,1.451-1.199,2.451
	c-1.327-0.205-3.303-1.356-5.463-3.52c-2.162-2.16-3.314-4.137-3.517-5.463c1-0.416,1.879-0.836,2.452-1.198
	c0.391-0.257,0.448-0.254,0.905-0.571c0.019-0.014,0.037-0.026,0.058-0.04c0,0,0.002,0,0.002-0.002
	c0.029-0.022,0.063-0.046,0.091-0.075c0.286-0.286,0.31-0.73,0.079-1.048V44.57l-3.374-4.726h-0.008
	c-0.028-0.038-0.056-0.076-0.09-0.111c-0.29-0.288-0.744-0.309-1.062-0.067c-2.262,1.552-4.309,3.255-4.04,5.272
	c0.287,2.164,2.865,6.93,6.236,10.301c3.372,3.371,8.14,5.951,10.301,6.235C59.079,61.746,60.782,59.7,62.334,57.436"/>
</svg>
