<?xml version="1.0" encoding="utf-8"?>
<!-- Generator: Adobe Illustrator 16.0.4, SVG Export Plug-In . SVG Version: 6.00 Build 0)  -->
<!DOCTYPE svg PUBLIC "-//W3C//DTD SVG 1.1//EN" "http://www.w3.org/Graphics/SVG/1.1/DTD/svg11.dtd">
<svg version="1.1" id="Layer_1" xmlns="http://www.w3.org/2000/svg" xmlns:xlink="http://www.w3.org/1999/xlink" x="0px" y="0px"
	 width="100px" height="100px" viewBox="0 0 100 100" enable-background="new 0 0 100 100" xml:space="preserve">
<path fill="#FFFFFF" d="M50.001,46.089c-2.319,0-4.198-1.901-4.198-4.253c0-2.352,1.879-4.253,4.198-4.253
	c2.318,0,4.197,1.901,4.197,4.253C54.198,44.188,52.319,46.089,50.001,46.089z M59.648,36.278c-1.299-2.375-3.364-4.203-6.1-5.167
	c-0.476-0.17-0.962-0.305-1.474-0.402c-0.533-0.098-1.112-0.17-1.714-0.207h-0.36h-0.359c-0.604,0.037-1.183,0.109-1.716,0.207
	c-0.511,0.098-0.998,0.232-1.473,0.402c-2.726,0.964-4.801,2.792-6.1,5.167c-0.893,1.633-1.483,3.668-1.346,6.155
	c0.06,1.145,0.35,2.168,0.685,3.094c0.349,0.914,0.755,1.743,1.23,2.535c1.81,3.098,4.267,5.851,5.659,9.396
	c0.708,1.803,1.333,3.681,1.867,5.679c0.521,1.974,0.997,4.07,1.195,6.36h0.359h0.36c0.197-2.29,0.671-4.387,1.193-6.36
	c0.534-1.998,1.16-3.876,1.867-5.679c1.393-3.546,3.85-6.299,5.659-9.396c0.476-0.792,0.882-1.621,1.229-2.535
	c0.336-0.926,0.626-1.95,0.684-3.094C61.132,39.946,60.54,37.911,59.648,36.278z"/>
</svg>
