<?xml version="1.0" encoding="utf-8"?>
<!-- Generator: Adobe Illustrator 16.0.4, SVG Export Plug-In . SVG Version: 6.00 Build 0)  -->
<!DOCTYPE svg PUBLIC "-//W3C//DTD SVG 1.1//EN" "http://www.w3.org/Graphics/SVG/1.1/DTD/svg11.dtd">
<svg version="1.1" id="Layer_1" xmlns="http://www.w3.org/2000/svg" xmlns:xlink="http://www.w3.org/1999/xlink" x="0px" y="0px"
	 width="100px" height="100px" viewBox="0 0 100 100" enable-background="new 0 0 100 100" xml:space="preserve">
<g>
	<g>
		<path fill="#FFFFFF" d="M50,30c-11.046,0-20,8.954-20,20s8.954,20,20,20s20-8.954,20-20S61.046,30,50,30z M41.197,56.17
			c-0.36-0.011-0.677-0.232-0.862-0.602c-0.137-0.271-0.231-0.718-0.287-1.258c-0.165-1.636,0.036-4.095,0.504-4.877
			c0.221-0.361,0.542-0.55,0.9-0.536c0.235,0.005,0.443,0.082,5.104,2.08c0.002,0,1.363,0.575,1.363,0.575
			c0.492,0.191,0.791,0.724,0.76,1.324c-0.031,0.587-0.356,1.049-0.836,1.174c-0.009,0.003-1.937,0.642-1.937,0.642
			C41.571,56.142,41.428,56.185,41.197,56.17z M51.075,59.197c-0.011,4.737-0.021,4.893-0.097,5.119
			c-0.125,0.354-0.417,0.589-0.82,0.666c-1.159,0.205-4.791-1.184-5.547-2.119c-0.154-0.195-0.244-0.405-0.264-0.615
			c-0.019-0.146,0.002-0.293,0.052-0.434c0.079-0.236,0.212-0.421,3.479-4.404c0.004,0,0.956-1.174,0.956-1.174
			c0.322-0.422,0.902-0.555,1.441-0.341c0.523,0.213,0.842,0.677,0.812,1.19C51.086,57.106,51.075,59.197,51.075,59.197z
			 M50.291,49.301c-0.233,0.075-0.953,0.304-1.834-1.178c0,0-5.955-9.735-6.096-10.037c-0.084-0.335,0.023-0.718,0.308-1.029
			c0.892-0.954,5.696-2.354,6.954-2.03c0.41,0.11,0.695,0.38,0.795,0.758c0.069,0.419,0.654,9.452,0.74,11.48
			C51.238,48.994,50.525,49.226,50.291,49.301z M53.326,49.785c0.016-0.016,1.207-1.701,1.207-1.701
			c2.636-3.749,2.777-3.943,2.967-4.073c0.307-0.212,0.678-0.226,1.047-0.039c1.043,0.527,3.164,3.798,3.29,5.056
			c0.003,0.017,0,0.027,0,0.042c0.024,0.426-0.124,0.775-0.421,0.982c-0.195,0.133-0.385,0.2-5.312,1.438
			c-0.791,0.195-1.225,0.306-1.467,0.401c0.004-0.007,0.026-0.042,0.026-0.042c-0.493,0.143-1.03-0.104-1.349-0.61
			C53.008,50.752,53.012,50.183,53.326,49.785z M61.994,57.844c-0.167,1.216-2.558,4.371-3.65,4.825
			c-0.379,0.16-0.744,0.121-1.029-0.114c-0.188-0.148-0.384-0.457-2.957-4.799l-0.766-1.293c-0.291-0.466-0.235-1.076,0.13-1.542
			c0.352-0.454,0.879-0.623,1.337-0.44c0.025,0.015,1.929,0.666,1.929,0.666c4.331,1.48,4.476,1.535,4.656,1.678
			C61.924,57.056,62.051,57.42,61.994,57.844z"/>
	</g>
</g>
</svg>
