<?xml version="1.0" encoding="utf-8"?>
<!-- Generator: Adobe Illustrator 18.1.1, SVG Export Plug-In . SVG Version: 6.00 Build 0)  -->
<svg version="1.1" id="Layer_1" xmlns="http://www.w3.org/2000/svg" xmlns:xlink="http://www.w3.org/1999/xlink" x="0px" y="0px"
	 viewBox="0 0 960 301.5" enable-background="new 0 0 960 301.5" xml:space="preserve">
<g>
	<rect x="1.8" y="1.3" fill="#006BB6" width="957.8" height="299.3"/>
	<path fill="#006BB6" d="M960.4,301.5H0.4V0h960V301.5z M2.7,299.3h955.6V2.2H2.7V299.3z"/>
</g>
<g>
	<g>
		<rect x="757.4" y="150.8" fill="#FFFFFF" width="38.1" height="86.9"/>
		<path fill="#006BB6" d="M799,241.2h-44.8v-93.6H799V241.2z M760.5,234.6h31.5v-80.3h-31.5V234.6z"/>
	</g>
	<g>
		<rect x="733" y="175.2" fill="#FFFFFF" width="86.9" height="38.1"/>
		<path fill="#006BB6" d="M823.4,216.8h-93.6v-45.2h93.6V216.8z M736.1,210.2h80.3v-31.5h-80.3V210.2z"/>
	</g>
</g>
<g>
	<path fill="#FFFFFF" d="M80.7,82.5h36.8c7.5,0,10.2,3.1,10.2,8.9v3.1c0,4.9-2.2,8.9-8,8.9h-39C80.7,103.3,80.7,82.5,80.7,82.5z
		 M55.4,144.1h25.3v-20.4h49.7c17.7,0,23.1-14.2,23.1-26.2v-7.1c0-16-5.8-27.9-29.7-27.9H55.4V144.1z"/>
</g>
<g>
	<path fill="#FFFFFF" d="M186.2,82.5h39c8,0,11.5,1.3,11.5,8.4v2.7c0,5.8-2.7,8.4-9.3,8.4h-41.7V82.5H186.2z M161,144.1h25.3v-21.3
		h39.5c8,0,10.2,2.7,10.2,11.5v9.8h25.3v-13.7c0-13.3-6.2-16.8-13.7-18.2v-0.4c11.5-2.7,14.2-9.3,14.2-20v-5.3
		c0-14.6-5.3-24.4-24.4-24.4H161V144.1z"/>
</g>
<g>
	<path fill="#FFFFFF" d="M272.3,62.1h89.6v19.1h-64.7v13.3h61.2v16.8h-61.2v13.3h66.1v19.5h-90.9V62.1z"/>
</g>
<g>
	<path fill="#FFFFFF" d="M370.3,90.9c0-23.9,13.3-29.7,35.9-29.7h29.7c35.9,0,40.4,7.5,40.4,31H451V90c0-5.8-4.4-7.5-12-7.5h-27.5
		c-13.3,0-15.5,6.2-15.5,16.4v8.9c0,12,2.7,16.4,14.2,16.4h26.6c11.1,0,14.6-1.3,14.6-11.1h25.3v7.5c0,13.7-4.9,24.8-30.2,24.8
		h-40.4c-22.6,0-35.9-5.8-35.9-29.7V90.9z"/>
</g>
<g>
	<path fill="#FFFFFF" d="M487.3,62.1h25.3v82h-25.3V62.1z"/>
</g>
<g>
	<path fill="#FFFFFF" d="M523.2,117.1h25.3c0,8.9,3.5,9.3,10.6,9.3h30.6c5.3,0,10.6-0.4,10.6-7.1c0-7.1-3.1-7.5-35.5-7.5
		c-37.7,0-42.1-4.4-42.1-24.8c0-14.6,1.3-26.2,32.8-26.2h35c28.8,0,31.5,9.8,31.5,24.4v2.7h-25.3c0-6.2-0.9-8.4-12.4-8.4h-27.9
		c-5.8,0-9.3,1.8-9.3,6.2c0,7.1,3.1,7.5,30.2,7.1c39,0,47.9,2.2,47.9,26.2c0,22.2-7.5,25.7-40.8,25.7h-30.6
		c-23.1,0-31.9-4.4-31.9-22.2v-5.3H523.2z"/>
</g>
<g>
	<path fill="#FFFFFF" d="M637.2,62.1h25.3v82h-25.3V62.1z"/>
</g>
<g>
	<path fill="#FFFFFF" d="M698.4,98.4c0-10.2,2.7-16.4,15.5-16.4h29.3c13.3,0,15.5,6.2,15.5,16.4v8.9c0,12-2.7,16.4-14.2,16.4h-31.9
		c-12,0-14.2-4.4-14.2-16.4L698.4,98.4L698.4,98.4z M672.7,115.3c0,23.9,13.3,29.7,35.9,29.7h40.4c22.6,0,35.9-5.8,35.9-29.7V90.9
		c0-23.9-13.3-29.7-35.9-29.7h-40.4c-22.6,0-35.9,5.8-35.9,29.7V115.3z"/>
</g>
<g>
	<path fill="#FFFFFF" d="M794.2,62.1h39l47,59.4h0.4V62.1h25.3v82h-39l-47-59.4h-0.4v59.4h-25.3V62.1z"/>
</g>
<g>
	<path fill="#FFFFFF" d="M81.6,175.6h44.3c10.6,0,15.1,3.1,15.1,14.6v11.1c0,11.5-4,14.6-15.1,14.6H81.6V175.6z M56.3,237.2h75.8
		c25.3,0,33.7-8.4,33.7-28.4V184c0-20.4-8.9-28.4-33.7-28.4H56.3V237.2z"/>
</g>
<g>
	<path fill="#FFFFFF" d="M176.5,155.2h25.3v82h-25.3V155.2z"/>
</g>
<g>
	<path fill="#FFFFFF" d="M212,184c0-23.9,13.3-29.7,35.9-29.7h37.7c28.4,0,32.4,10.2,32.4,26.2v2.7h-24.8c0-8-4.4-9.3-12.9-9.3h-27
		c-12.9,0-16,3.1-16,17.3v10.2c0,14.2,3.1,17.3,16,17.3h26.6c6.7,0,13.3-0.9,13.3-8.9v-2.2h-31v-16.8h56.3v23.5
		c0,23.5-12.4,24.8-40.4,24.8h-30.2c-22.6,0-35.9-5.8-35.9-29.7L212,184L212,184z"/>
</g>
<g>
	<path fill="#FFFFFF" d="M329,155.2h25.3v82H329V155.2z"/>
</g>
<g>
	<path fill="#FFFFFF" d="M360.5,155.2h95.8v20.4h-35.5v61.6h-25.3v-61.6h-35.5v-20.4H360.5z"/>
</g>
<g>
	<path fill="#FFFFFF" d="M505.1,174.3l16.4,30.6h-31.9L505.1,174.3z M444.3,237.2h27.9l7.5-14.6h51l8,14.6h27.9l-45.2-82h-32.8
		L444.3,237.2z"/>
</g>
<g>
	<path fill="#FFFFFF" d="M569.3,155.2h25.3v60.7h56.3v20.8h-81.6V155.2z"/>
</g>
<g>
	<line fill="none" x1="55.9" y1="35.9" x2="905.5" y2="35.9"/>
	<rect x="55.9" y="32.8" fill="#FFFFFF" width="849.6" height="6.7"/>
</g>
<g>
	<line fill="none" x1="56.3" y1="262.9" x2="905.5" y2="262.9"/>
	<rect x="56.3" y="259.4" fill="#FFFFFF" width="849.1" height="6.7"/>
</g>
</svg>
