<?xml version="1.0" encoding="utf-8"?>
<!-- Generator: Adobe Illustrator 16.0.4, SVG Export Plug-In . SVG Version: 6.00 Build 0)  -->
<!DOCTYPE svg PUBLIC "-//W3C//DTD SVG 1.1//EN" "http://www.w3.org/Graphics/SVG/1.1/DTD/svg11.dtd">
<svg version="1.1" id="Layer_1" xmlns="http://www.w3.org/2000/svg" xmlns:xlink="http://www.w3.org/1999/xlink" x="0px" y="0px"
	 width="266px" height="95px" viewBox="0 0 266 95" enable-background="new 0 0 266 95" xml:space="preserve">
<g>
	<g>
		<path fill="#15467A" d="M262.332,66.004c0,1.715-1.404,3.119-3.119,3.119H6.787c-1.717,0-3.12-1.404-3.12-3.119V32.28
			c0-1.716,1.403-3.12,3.12-3.12h252.426c1.715,0,3.119,1.404,3.119,3.12V66.004z"/>
	</g>
	<g>
		<g>
			<path fill-rule="evenodd" clip-rule="evenodd" fill="#594A42" d="M133.427,94.658c8.454,0,5.056-8.396,0.884-12.139
				c-6.553-5.873-12.944-7.898-19.951-8.236c-11.792-0.566-32.874,7.309-41.616-2.576c-1.704-1.924-3.713,6.842,5.737,6.842
				c3.365,0-1.239,6.576,6.399,2.76c1.738-0.869,5.257-4.68,5.738-0.994c0.471,3.627,9.352-2.457,10.316-3.199
				c2.913-2.24,7.141-2.316,10.536-2.316c7.662,0,6.458,5.736,3.641,5.736c-1.88,0-8.403-3.336-12.578-0.635
				c-2.714,1.758-3.425,9.246,0.992,4.828c2.431-2.43,8.365-1.262,12.962-2.492c3.145-0.842,4.725-4.801,7.85-3.896
				c3.843,1.109,12.562,5.887,12.426,10.82C136.654,93.08,130.163,94.59,133.427,94.658z"/>
		</g>
		<g>
			<path fill-rule="evenodd" clip-rule="evenodd" fill="#594A42" d="M132.572,94.658c-8.453,0-5.055-8.396-0.884-12.139
				c6.553-5.873,12.945-7.898,19.947-8.236c11.796-0.566,32.878,7.309,41.62-2.576c1.704-1.924,3.713,6.842-5.736,6.842
				c-3.366,0,1.237,6.576-6.399,2.76c-1.74-0.869-5.259-4.68-5.739-0.994c-0.472,3.627-9.352-2.457-10.316-3.199
				c-2.912-2.24-7.141-2.316-10.536-2.316c-7.66,0-6.458,5.736-3.643,5.736c1.882,0,8.406-3.336,12.581-0.635
				c2.714,1.758,3.425,9.246-0.993,4.828c-2.432-2.43-8.364-1.262-12.96-2.492c-3.146-0.842-4.727-4.801-7.85-3.896
				c-3.844,1.109-12.562,5.887-12.426,10.82C129.345,93.08,135.836,94.59,132.572,94.658z"/>
		</g>
	</g>
	<g>
		<g>
			<g>
				<path fill="#594A42" d="M168.729,21.998c-2.206,0,0.811-4.309-4.193-1.808c-1.14,0.568-3.446,3.066-3.762,0.65
					c-0.31-2.376-6.129,1.61-6.761,2.097c-1.909,1.468-4.678,1.519-6.904,1.519c-5.021,0-4.233-3.76-2.387-3.76
					c1.233,0,5.508,2.187,8.243,0.416c1.777-1.151,2.244-6.059-0.65-3.163c-1.594,1.591-5.482,0.826-8.494,1.634
					c-2.062,0.55-3.098,3.146-5.146,2.553c-0.91-0.264-2.241-0.845-3.563-1.629c0.213-0.256,0.415-0.566,0.586-0.95
					c1.754,1.244,2.531,1.361,3.992,0.178c-0.442-0.35-0.648-1.038-0.744-1.604c-1.964,0.306-3.962,0.467-5.947,0.467
					s-3.983-0.161-5.947-0.467c-0.095,0.565-0.3,1.254-0.744,1.604c1.462,1.184,2.239,1.066,3.993-0.179
					c0.171,0.384,0.373,0.694,0.586,0.95c-1.322,0.785-2.652,1.366-3.564,1.63c-2.047,0.593-3.083-2.003-5.145-2.553
					c-3.012-0.808-6.9-0.043-8.493-1.634c-2.895-2.896-2.43,2.012-0.652,3.163c2.737,1.771,7.014-0.416,8.245-0.416
					c1.847,0,2.634,3.76-2.386,3.76c-2.226,0-4.997-0.051-6.905-1.519c-0.633-0.486-6.451-4.473-6.761-2.097
					c-0.315,2.416-2.621-0.082-3.761-0.65c-5.006-2.501-1.989,1.808-4.194,1.808c-6.193,0-4.877,5.745-3.76,4.482
					c5.729-6.477,19.546-1.315,27.275-1.688c3.795-0.184,7.316-1.127,10.851-3.622c0.644,0.411,1.233,0.46,1.352,0.465h0.011h0.013
					c0.118-0.005,0.708-0.054,1.352-0.465c3.533,2.495,7.054,3.438,10.853,3.622c7.729,0.372,21.544-4.789,27.273,1.688
					C173.605,27.743,174.921,21.998,168.729,21.998z"/>
			</g>
		</g>
		<g>
			<path fill="#594A42" d="M127.432,15.621c-0.05,0.091-0.092,0.187-0.115,0.292c-0.021,0.1-0.041,0.2-0.062,0.301
				c-0.121,0.565,0.29,1.135,0.923,1.24c3.193,0.53,6.452,0.53,9.646-0.001c0.633-0.104,1.044-0.674,0.922-1.239
				c-0.021-0.101-0.041-0.201-0.062-0.301c-0.021-0.105-0.064-0.201-0.113-0.292c-1.844,0.255-3.712,0.391-5.568,0.391
				C131.143,16.012,129.276,15.876,127.432,15.621z"/>
		</g>
		<g>
			<path fill="#594A42" d="M136.531,11.812C140.166,6.122,133,0.342,133,0.342s-7.166,5.78-3.532,11.47
				C131.813,12.037,134.186,12.037,136.531,11.812z"/>
		</g>
		<g>
			<path fill="#594A42" d="M140.55,13.477l-0.086-0.414c-0.122-0.572-0.703-0.965-1.318-0.868c-1.047,0.176-2.105,0.303-3.167,0.387
				c-1.98,0.157-3.977,0.157-5.957,0c-1.062-0.084-2.12-0.211-3.169-0.387c-0.063-0.01-0.129-0.016-0.193-0.016
				c-0.541,0-1.015,0.372-1.124,0.886l-0.086,0.41c-0.057,0.265,0,0.538,0.159,0.772c0.182,0.266,0.479,0.452,0.818,0.508
				c4.332,0.721,8.813,0.721,13.146,0c0.339-0.056,0.637-0.242,0.818-0.508C140.55,14.013,140.606,13.739,140.55,13.477z"/>
		</g>
	</g>
	<g>
		<path fill="#594A42" d="M262.361,72.043H3.638c-1.912,0-3.467-1.557-3.467-3.467V29.708c0-1.911,1.555-3.467,3.467-3.467h258.724
			c1.911,0,3.468,1.556,3.468,3.467v38.868C265.829,70.486,264.272,72.043,262.361,72.043z M3.638,26.934
			c-1.529,0-2.773,1.245-2.773,2.774v38.868c0,1.529,1.244,2.773,2.773,2.773h258.724c1.529,0,2.774-1.244,2.774-2.773V29.708
			c0-1.529-1.245-2.774-2.774-2.774H3.638z"/>
	</g>
	<g>
		<path fill="#FFFFFF" d="M30.823,41.399h4.063v0.449c-1.291,0.026-1.937,0.713-1.937,2.06c0,0.114,0.005,0.233,0.015,0.355
			l0.865,9.545c0.098,1.016,0.291,1.693,0.579,2.029c0.289,0.336,0.81,0.535,1.562,0.598v0.447h-6.189v-0.447
			c0.656-0.098,1.119-0.293,1.39-0.584c0.269-0.293,0.403-0.74,0.403-1.342c0-0.125-0.005-0.262-0.015-0.412l-0.92-10.013
			l-5.894,12.798h-0.452l-5.816-12.769l-0.967,9.522c-0.01,0.15-0.015,0.291-0.015,0.422c0,1.336,0.746,2.129,2.238,2.377v0.447
			h-5.354v-0.447c0.714-0.09,1.229-0.316,1.548-0.682c0.317-0.365,0.535-1.09,0.652-2.172l1.042-10.651
			c-0.607-0.589-1.354-0.95-2.245-1.082v-0.449h4.359l5.505,12.183L30.823,41.399z"/>
		<path fill="#FFFFFF" d="M50.929,56.883v-0.447c0.986,0,1.479-0.311,1.479-0.928c0-0.176-0.044-0.375-0.132-0.596l-1.599-4.299
			h-5.523l-1.173,3.109c-0.294,0.783-0.44,1.354-0.44,1.707c0,0.652,0.453,0.988,1.359,1.006v0.447h-4.443v-0.447
			c0.636-0.08,1.129-0.27,1.482-0.57c0.353-0.301,0.709-0.922,1.072-1.865l4.757-12.772h1.771l4.995,13.341
			c0.293,0.785,0.599,1.293,0.917,1.521s0.829,0.346,1.534,0.346v0.447H50.929z M45.474,49.662h4.852l-2.44-6.56L45.474,49.662z"/>
		<path fill="#FFFFFF" d="M60.988,56.883v-0.447c0.737,0,1.247-0.184,1.528-0.551c0.281-0.363,0.422-1,0.422-1.908V44.32
			c0-0.925-0.141-1.568-0.422-1.93s-0.791-0.542-1.528-0.542v-0.449h7.957c2.94,0,5.292,0.752,7.056,2.258
			c1.764,1.505,2.646,3.419,2.646,5.741c0,2.279-0.835,4.096-2.506,5.453c-1.671,1.354-3.996,2.031-6.976,2.031H60.988z
			 M68.482,41.994h-3.271v11.43c0,1.102,0.146,1.854,0.44,2.258c0.293,0.404,0.88,0.607,1.759,0.607h1.775
			c2.112,0,3.773-0.613,4.987-1.842c1.212-1.227,1.818-2.9,1.818-5.021c0-2.253-0.663-4.055-1.987-5.406
			C72.68,42.67,70.839,41.994,68.482,41.994z"/>
		<path fill="#FFFFFF" d="M91.472,56.883h-7.929v-0.447c0.733,0,1.241-0.18,1.525-0.537c0.283-0.355,0.426-0.996,0.426-1.922V44.32
			c0-0.943-0.135-1.591-0.403-1.943c-0.27-0.352-0.785-0.528-1.548-0.528v-0.449h6.49c1.86,0,3.323,0.347,4.391,1.036
			s1.601,1.602,1.601,2.736c0,1.661-1.154,2.831-3.461,3.508v0.066c1.31,0.236,2.378,0.76,3.204,1.564
			c0.826,0.807,1.239,1.734,1.239,2.781c0,1.145-0.507,2.062-1.52,2.756C94.475,56.537,93.136,56.883,91.472,56.883z M87.768,41.994
			v6.561h1.778c1.245,0,2.235-0.292,2.971-0.878s1.103-1.375,1.103-2.37c0-1.047-0.36-1.861-1.08-2.441
			c-0.722-0.581-1.738-0.871-3.052-0.871H87.768z M89.398,49.146h-1.631v4.543c0,1.002,0.122,1.688,0.367,2.051
			c0.245,0.367,0.715,0.549,1.411,0.549h1.426c0.999,0,1.815-0.303,2.447-0.904c0.632-0.604,0.948-1.41,0.948-2.422
			c0-1.152-0.453-2.076-1.359-2.773C92.101,49.496,90.898,49.146,89.398,49.146z"/>
		<path fill="#FFFFFF" d="M114.854,53.635v-9.317c0-0.906-0.136-1.538-0.403-1.895c-0.27-0.355-0.746-0.548-1.43-0.574v-0.449h6.071
			v0.449c-0.733,0-1.242,0.181-1.525,0.542c-0.284,0.361-0.425,1.005-0.425,1.93v9.656c0,0.908,0.14,1.545,0.417,1.908
			c0.28,0.367,0.79,0.551,1.533,0.551v0.447h-4.238v-2.164c-1.613,1.699-3.525,2.547-5.735,2.547c-1.818,0-3.248-0.488-4.29-1.465
			c-1.041-0.977-1.562-2.266-1.562-3.867v-7.616c0-0.924-0.135-1.566-0.403-1.928c-0.269-0.36-0.785-0.541-1.547-0.541v-0.449h6.219
			v0.449c-0.773,0-1.296,0.176-1.569,0.528c-0.274,0.353-0.411,0.99-0.411,1.915v7.839c0,1.268,0.386,2.264,1.159,2.99
			c0.772,0.727,1.848,1.088,3.226,1.088C111.984,56.209,113.622,55.352,114.854,53.635z"/>
		<path fill="#FFFFFF" d="M129.885,49.715h-1.393v4.26c0,0.916,0.144,1.557,0.433,1.918c0.288,0.361,0.799,0.543,1.532,0.543v0.447
			h-6.188v-0.447c0.762,0,1.278-0.182,1.547-0.543s0.402-1,0.402-1.916v-9.71c0-0.916-0.131-1.548-0.395-1.896
			c-0.265-0.347-0.783-0.521-1.555-0.521v-0.449h7.054c1.74,0,3.132,0.381,4.173,1.143s1.562,1.731,1.562,2.91
			c0,1.901-1.184,3.167-3.55,3.802c0.52,0.299,1.027,0.711,1.522,1.234c0.494,0.523,1.145,1.393,1.946,2.609
			c0.899,1.35,1.604,2.232,2.11,2.654c0.506,0.42,1.031,0.646,1.578,0.684v0.447h-3.52c-0.724-0.783-1.6-1.934-2.626-3.451
			c-1.095-1.596-1.953-2.613-2.574-3.055C131.325,49.936,130.639,49.715,129.885,49.715z M130.295,41.994h-1.803v7.074h2.112
			c1.261,0,2.25-0.324,2.97-0.976c0.718-0.651,1.078-1.514,1.078-2.588c0-1.047-0.399-1.895-1.196-2.541
			S131.606,41.994,130.295,41.994z"/>
		<path fill="#FFFFFF" d="M155.108,43.604l-3.872,5.492v4.879c0,0.943,0.134,1.59,0.403,1.938s0.766,0.523,1.489,0.523v0.447h-6.277
			v-0.447c0.852,0,1.415-0.186,1.694-0.557c0.278-0.371,0.418-1.006,0.418-1.904v-4.879l-3.667-5.136
			c-0.606-0.854-1.101-1.412-1.482-1.676c-0.381-0.264-0.909-0.409-1.584-0.436v-0.449h6.733v0.449
			c-1.184,0-1.774,0.242-1.774,0.726c0,0.22,0.118,0.494,0.353,0.818l3.401,4.69l2.724-3.887c0.401-0.581,0.602-1.077,0.602-1.49
			c0-0.572-0.38-0.857-1.14-0.857v-0.449h4.724v0.449c-0.637,0.035-1.128,0.161-1.475,0.376
			C156.03,42.44,155.606,42.9,155.108,43.604z"/>
		<path fill="#FFFFFF" d="M178.012,49.715h-1.393v4.26c0,0.916,0.144,1.557,0.433,1.918c0.288,0.361,0.799,0.543,1.532,0.543v0.447
			h-6.189v-0.447c0.764,0,1.279-0.182,1.548-0.543c0.268-0.361,0.403-1,0.403-1.916v-9.71c0-0.916-0.132-1.548-0.396-1.896
			c-0.264-0.347-0.782-0.521-1.555-0.521v-0.449h7.056c1.74,0,3.132,0.381,4.173,1.143s1.561,1.731,1.561,2.91
			c0,1.901-1.183,3.167-3.549,3.802c0.521,0.299,1.027,0.711,1.522,1.234s1.145,1.393,1.947,2.609
			c0.899,1.35,1.604,2.232,2.11,2.654c0.506,0.42,1.032,0.646,1.577,0.684v0.447h-3.52c-0.724-0.783-1.599-1.934-2.625-3.451
			c-1.096-1.596-1.954-2.613-2.575-3.055C179.452,49.936,178.766,49.715,178.012,49.715z M178.423,41.994h-1.804v7.074h2.112
			c1.261,0,2.251-0.324,2.97-0.976s1.078-1.514,1.078-2.588c0-1.047-0.398-1.895-1.195-2.541S179.732,41.994,178.423,41.994z"/>
		<path fill="#FFFFFF" d="M191.593,49.068c0-2.296,0.881-4.213,2.64-5.747c1.761-1.536,3.956-2.304,6.586-2.304
			c2.552,0,4.711,0.778,6.477,2.336c1.764,1.558,2.646,3.463,2.646,5.715c0,2.297-0.891,4.238-2.669,5.822
			c-1.78,1.584-3.955,2.375-6.527,2.375c-2.562,0-4.728-0.791-6.497-2.375C192.478,53.307,191.593,51.365,191.593,49.068z
			 M194.232,49.096c0,2.262,0.597,4.088,1.79,5.484c1.193,1.395,2.758,2.092,4.693,2.092c1.956,0,3.542-0.713,4.76-2.139
			c1.217-1.426,1.826-3.203,1.826-5.332c0-2.288-0.597-4.125-1.79-5.511c-1.192-1.387-2.738-2.079-4.635-2.079
			c-2.014,0-3.625,0.682-4.833,2.046C194.837,45.021,194.232,46.834,194.232,49.096z"/>
		<path fill="#FFFFFF" d="M223.299,56.883v-0.447c0.986,0,1.479-0.311,1.479-0.928c0-0.176-0.044-0.375-0.132-0.596l-1.599-4.299
			h-5.523l-1.174,3.109c-0.294,0.783-0.439,1.354-0.439,1.707c0,0.652,0.453,0.988,1.359,1.006v0.447h-4.443v-0.447
			c0.636-0.08,1.13-0.27,1.482-0.57c0.352-0.301,0.71-0.922,1.071-1.865l4.759-12.772h1.771l4.994,13.341
			c0.294,0.785,0.6,1.293,0.917,1.521c0.319,0.229,0.83,0.346,1.535,0.346v0.447H223.299z M217.844,49.662h4.851l-2.439-6.56
			L217.844,49.662z"/>
		<path fill="#FFFFFF" d="M233.959,56.883v-0.447c0.738,0,1.247-0.184,1.528-0.551c0.281-0.363,0.422-1,0.422-1.908V44.32
			c0-0.925-0.141-1.568-0.422-1.93s-0.79-0.542-1.528-0.542v-0.449h7.957c2.941,0,5.292,0.752,7.057,2.258
			c1.763,1.505,2.645,3.419,2.645,5.741c0,2.279-0.835,4.096-2.505,5.453c-1.671,1.354-3.997,2.031-6.977,2.031H233.959z
			 M241.454,41.994h-3.271v11.43c0,1.102,0.147,1.854,0.439,2.258c0.294,0.404,0.881,0.607,1.761,0.607h1.774
			c2.112,0,3.774-0.613,4.987-1.842c1.212-1.227,1.818-2.9,1.818-5.021c0-2.253-0.663-4.055-1.987-5.406
			C245.65,42.67,243.81,41.994,241.454,41.994z"/>
	</g>
</g>
</svg>
